<?xml version="1.0" encoding="utf-8"?>
<svg width="24px" height="18px" viewBox="0 0 24 18" version="1.1" xmlns:xlink="http://www.w3.org/1999/xlink" xmlns="http://www.w3.org/2000/svg">
  <g id="Group">
    <path d="M22.7143 0C23.4245 0 24 0.575537 24 1.28571L24 1.28571C24 1.99589 23.4245 2.57143 22.7143 2.57143L1.28571 2.57143C0.575537 2.57143 0 1.99589 0 1.28571L0 1.28571C0 0.575537 0.575537 0 1.28571 0L22.7143 0Z" id="Rectangle" fill="#0F2165" stroke="none" />
    <path d="M22.7143 7.71428C23.4245 7.71428 24 8.28982 24 9L24 9C24 9.71018 23.4245 10.2857 22.7143 10.2857L9.28571 10.2857C8.57554 10.2857 8 9.71018 8 9L8 9C8 8.28982 8.57554 7.71428 9.28571 7.71428L22.7143 7.71428Z" id="Rectangle-Copy" fill="#0F2165" stroke="none" />
    <path d="M22.3143 15.4286C23.0245 15.4286 23.6 16.0041 23.6 16.7143L23.6 16.7143C23.6 17.4245 23.0245 18 22.3143 18L15.2857 18C14.5755 18 14 17.4245 14 16.7143L14 16.7143C14 16.0041 14.5755 15.4286 15.2857 15.4286L22.3143 15.4286Z" id="Rectangle-Copy-2" fill="#0F2165" stroke="none" />
  </g>
</svg>