<?xml version="1.0" encoding="utf-8"?>
<svg width="30px" height="30px" viewBox="0 0 30 30" version="1.1" xmlns:xlink="http://www.w3.org/1999/xlink" xmlns="http://www.w3.org/2000/svg">
  <defs>
    <path d="M30 0L30 0L30 30L0 30L0 0L30 0Z" id="path_1" />
    <clipPath id="clip_1">
      <use xlink:href="#path_1" clip-rule="evenodd" fill-rule="evenodd" />
    </clipPath>
  </defs>
  <g id="Search" clip-path="url(#clip_1)">
    <path d="M30 0L30 0L30 30L0 30L0 0L30 0Z" id="Search" fill="none" stroke="none" />
    <path d="M13 3C7.489 3 3 7.489 3 13C3 18.511 7.489 23 13 23C15.3965 23 17.5974 22.149 19.3223 20.7363L25.293 26.707C25.5438 26.9683 25.9162 27.0735 26.2667 26.9821C26.6171 26.8908 26.8908 26.6171 26.9821 26.2667C27.0735 25.9162 26.9683 25.5438 26.707 25.293L20.7363 19.3223C22.149 17.5974 23 15.3965 23 13C23 7.489 18.511 3 13 3L13 3ZM13 5C17.4301 5 21 8.56988 21 13C21 17.4301 17.4301 21 13 21C8.56988 21 5 17.4301 5 13C5 8.56988 8.56988 5 13 5L13 5Z" id="Shape" fill="#FFFFFF" fill-rule="evenodd" stroke="none" />
  </g>
</svg>